<?xml version="1.0" encoding="UTF-8" standalone="no"?>
<!-- Created with Inkscape (http://www.inkscape.org/) -->

<svg
   xmlns:dc="http://purl.org/dc/elements/1.1/"
   xmlns:cc="http://creativecommons.org/ns#"
   xmlns:rdf="http://www.w3.org/1999/02/22-rdf-syntax-ns#"
   xmlns:svg="http://www.w3.org/2000/svg"
   xmlns="http://www.w3.org/2000/svg"
   xmlns:sodipodi="http://sodipodi.sourceforge.net/DTD/sodipodi-0.dtd"
   xmlns:inkscape="http://www.inkscape.org/namespaces/inkscape"
   width="140mm"
   height="56mm"
   viewBox="0 0 496.06337 198.42553"
   id="svg2"
   version="1.1"
   inkscape:version="0.91 r13725"
   sodipodi:docname="ct1-02.svg">
  <defs
     id="defs4">
    <marker
       inkscape:stockid="Arrow1Lend"
       orient="auto"
       refY="0.0"
       refX="0.0"
       id="marker4720"
       style="overflow:visible;"
       inkscape:isstock="true">
      <path
         id="path4722"
         d="M 0.0,0.0 L 5.0,-5.0 L -12.5,0.0 L 5.0,5.0 L 0.0,0.0 z "
         style="fill-rule:evenodd;stroke:#000000;stroke-width:1pt;stroke-opacity:1;fill:#000000;fill-opacity:1"
         transform="scale(0.8) rotate(180) translate(12.5,0)" />
    </marker>
    <marker
       inkscape:isstock="true"
       style="overflow:visible;"
       id="marker4678"
       refX="0.0"
       refY="0.0"
       orient="auto"
       inkscape:stockid="Arrow1Lend"
       inkscape:collect="always">
      <path
         transform="scale(0.8) rotate(180) translate(12.5,0)"
         style="fill-rule:evenodd;stroke:#000000;stroke-width:1pt;stroke-opacity:1;fill:#000000;fill-opacity:1"
         d="M 0.0,0.0 L 5.0,-5.0 L -12.5,0.0 L 5.0,5.0 L 0.0,0.0 z "
         id="path4680" />
    </marker>
    <marker
       inkscape:stockid="Arrow1Lend"
       orient="auto"
       refY="0.0"
       refX="0.0"
       id="Arrow1Lend"
       style="overflow:visible;"
       inkscape:isstock="true"
       inkscape:collect="always">
      <path
         id="path4385"
         d="M 0.0,0.0 L 5.0,-5.0 L -12.5,0.0 L 5.0,5.0 L 0.0,0.0 z "
         style="fill-rule:evenodd;stroke:#000000;stroke-width:1pt;stroke-opacity:1;fill:#000000;fill-opacity:1"
         transform="scale(0.8) rotate(180) translate(12.5,0)" />
    </marker>
  </defs>
  <sodipodi:namedview
     id="base"
     pagecolor="#ffffff"
     bordercolor="#666666"
     borderopacity="1.0"
     inkscape:pageopacity="0.0"
     inkscape:pageshadow="2"
     inkscape:zoom="2"
     inkscape:cx="148.14955"
     inkscape:cy="137.70709"
     inkscape:document-units="px"
     inkscape:current-layer="layer1"
     showgrid="false"
     inkscape:window-width="1920"
     inkscape:window-height="1020"
     inkscape:window-x="1920"
     inkscape:window-y="412"
     inkscape:window-maximized="1" />
  <metadata
     id="metadata7">
    <rdf:RDF>
      <cc:Work
         rdf:about="">
        <dc:format>image/svg+xml</dc:format>
        <dc:type
           rdf:resource="http://purl.org/dc/dcmitype/StillImage" />
        <dc:title></dc:title>
      </cc:Work>
    </rdf:RDF>
  </metadata>
  <g
     inkscape:label="Layer 1"
     inkscape:groupmode="layer"
     id="layer1"
     transform="translate(0,-853.93808)">
    <ellipse
       style="fill:#ffffff;fill-opacity:1;stroke:#000000;stroke-width:1.83589888;stroke-miterlimit:8.39999962;stroke-dasharray:none;stroke-opacity:1"
       id="path4136"
       cx="120.27497"
       cy="953.39679"
       rx="112.85603"
       ry="91.166603" />
    <ellipse
       style="fill:#ffffff;fill-opacity:1;stroke:#000000;stroke-width:2.42001772;stroke-miterlimit:8.39999962;stroke-dasharray:none;stroke-opacity:1"
       id="path4138"
       cx="62.589756"
       cy="973.94574"
       rx="0.9250049"
       ry="1.3459404" />
    <ellipse
       style="fill:#ffffff;fill-opacity:1;stroke:#000000;stroke-width:2.42001772;stroke-miterlimit:8.39999962;stroke-dasharray:none;stroke-opacity:1"
       id="path4138-3"
       cx="126.0451"
       cy="919.21088"
       rx="0.92500478"
       ry="1.3459401" />
    <ellipse
       style="fill:#ffffff;fill-opacity:1;stroke:#000000;stroke-width:2.42001772;stroke-miterlimit:8.39999962;stroke-dasharray:none;stroke-opacity:1"
       id="path4138-6"
       cx="128.58521"
       cy="1004.4052"
       rx="0.92500478"
       ry="1.3459401" />
    <text
       xml:space="preserve"
       style="font-style:normal;font-weight:normal;font-size:8.06672668px;line-height:125%;font-family:sans-serif;letter-spacing:0px;word-spacing:0px;fill:#000000;fill-opacity:1;stroke:none;stroke-width:1px;stroke-linecap:butt;stroke-linejoin:miter;stroke-opacity:1"
       x="52.420357"
       y="871.43506"
       id="text4161"
       sodipodi:linespacing="125%"
       transform="scale(0.90813366,1.1011595)"><tspan
         sodipodi:role="line"
         id="tspan4163"
         x="52.420357"
         y="871.43506"
         style="font-style:normal;font-variant:normal;font-weight:normal;font-stretch:normal;font-size:22.50003242px;font-family:'Noto Sans';-inkscape-font-specification:'Noto Sans'">Mary</tspan></text>
    <text
       xml:space="preserve"
       style="font-style:normal;font-weight:normal;font-size:8.06672668px;line-height:125%;font-family:sans-serif;letter-spacing:0px;word-spacing:0px;fill:#000000;fill-opacity:1;stroke:none;stroke-width:1px;stroke-linecap:butt;stroke-linejoin:miter;stroke-opacity:1"
       x="123.72082"
       y="820.91364"
       id="text4165"
       sodipodi:linespacing="125%"
       transform="scale(0.90813366,1.1011595)"><tspan
         sodipodi:role="line"
         id="tspan4167"
         x="123.72082"
         y="820.91364"
         style="font-style:normal;font-variant:normal;font-weight:normal;font-stretch:normal;font-size:22.50003242px;font-family:'Noto Sans';-inkscape-font-specification:'Noto Sans'">John</tspan></text>
    <text
       xml:space="preserve"
       style="font-style:normal;font-weight:normal;font-size:8.06672668px;line-height:125%;font-family:sans-serif;letter-spacing:0px;word-spacing:0px;fill:#000000;fill-opacity:1;stroke:none;stroke-width:1px;stroke-linecap:butt;stroke-linejoin:miter;stroke-opacity:1"
       x="112.36076"
       y="933.84283"
       id="text4165-2"
       sodipodi:linespacing="125%"
       transform="scale(0.90813366,1.1011595)"><tspan
         sodipodi:role="line"
         x="112.36076"
         y="933.84283"
         style="font-style:normal;font-variant:normal;font-weight:normal;font-stretch:normal;font-size:22.50003242px;font-family:'Noto Sans';-inkscape-font-specification:'Noto Sans'"
         id="tspan4187">Sam</tspan></text>
    <flowRoot
       xml:space="preserve"
       id="flowRoot4210"
       style="fill:black;stroke:none;stroke-opacity:1;stroke-width:1px;stroke-linejoin:miter;stroke-linecap:butt;fill-opacity:1;font-family:sans-serif;font-style:normal;font-weight:normal;font-size:40px;line-height:125%;letter-spacing:0px;word-spacing:0px"><flowRegion
         id="flowRegion4212"><rect
           id="rect4214"
           width="389"
           height="325"
           x="-134"
           y="-90.574799" /></flowRegion><flowPara
         id="flowPara4216"></flowPara></flowRoot>    <ellipse
       style="fill:#ffffff;fill-opacity:1;stroke:#000000;stroke-width:1.83589888;stroke-miterlimit:8.39999962;stroke-dasharray:none;stroke-opacity:1"
       id="path4136-4"
       cx="371.0004"
       cy="951.3634"
       rx="112.85603"
       ry="91.166603" />
    <path
       style="fill:#ffffff;fill-opacity:1;stroke:#000000;stroke-width:2.42001772;stroke-miterlimit:8.39999962;stroke-dasharray:none;stroke-opacity:1"
       d="m 312.24019,951.91229 a 0.9250049,1.3459404 0 0 1 -0.925,1.34594 0.9250049,1.3459404 0 0 1 -0.92501,-1.34594 0.9250049,1.3459404 0 0 1 0.92501,-1.34594 0.9250049,1.3459404 0 0 1 0.925,1.34594 z"
       id="path4138-35" />
    <ellipse
       style="fill:#ffffff;fill-opacity:1;stroke:#000000;stroke-width:2.42001772;stroke-miterlimit:8.39999962;stroke-dasharray:none;stroke-opacity:1"
       id="path4138-3-7"
       cx="376.77054"
       cy="917.17749"
       rx="0.92500478"
       ry="1.3459401" />
    <ellipse
       style="fill:#ffffff;fill-opacity:1;stroke:#000000;stroke-width:2.42001772;stroke-miterlimit:8.39999962;stroke-dasharray:none;stroke-opacity:1"
       id="path4138-6-5"
       cx="394.81067"
       cy="947.37177"
       rx="0.92500478"
       ry="1.3459401" />
    <g
       transform="scale(0.90813366,1.1011595)"
       style="font-style:normal;font-weight:normal;font-size:8.06672668px;line-height:125%;font-family:sans-serif;letter-spacing:0px;word-spacing:0px;fill:#000000;fill-opacity:1;stroke:none;stroke-width:1px;stroke-linecap:butt;stroke-linejoin:miter;stroke-opacity:1"
       id="text4161-6">
      <path
         d="m 332.25034,850.03058 q 0.38453,0 0.90088,-0.0769 0.51636,-0.0769 0.78003,-0.17578 l 0,1.51612 q -0.27465,0.12085 -0.85693,0.23071 -0.57129,0.12085 -1.16455,0.12085 -3.53761,0 -3.53761,-3.72437 l 0,-7.02028 -1.70288,0 0,-0.94482 1.72486,-0.79102 0.79101,-2.5708 1.17554,0 0,2.76856 3.48267,0 0,1.53808 -3.48267,0 0,6.96535 q 0,1.0437 0.49439,1.604 0.50537,0.56031 1.39526,0.56031 z"
         style="font-style:normal;font-variant:normal;font-weight:normal;font-stretch:normal;font-size:22.50003242px;font-family:'Noto Sans';-inkscape-font-specification:'Noto Sans'"
         id="path4265" />
      <path
         d="m 346.82922,845.37237 q 0,2.95532 -1.49414,4.61426 -1.49414,1.65894 -4.13087,1.65894 -1.63696,0 -2.90039,-0.75806 -1.26343,-0.76904 -1.94458,-2.19727 -0.68116,-1.42822 -0.68116,-3.31787 0,-2.94434 1.47217,-4.58131 1.47217,-1.64795 4.13087,-1.64795 2.54883,0 4.04297,1.68091 1.50513,1.66992 1.50513,4.54835 z m -9.10768,0 q 0,2.27417 0.8899,3.4607 0.90088,1.17553 2.64771,1.17553 1.72485,0 2.62573,-1.17553 0.90088,-1.18653 0.90088,-3.4607 0,-2.27418 -0.91186,-3.41676 -0.90088,-1.15356 -2.64771,-1.15356 -3.50465,0 -3.50465,4.57032 z"
         style="font-style:normal;font-variant:normal;font-weight:normal;font-stretch:normal;font-size:22.50003242px;font-family:'Noto Sans';-inkscape-font-specification:'Noto Sans'"
         id="path4267" />
      <path
         d="m 357.42006,851.42584 -0.38452,-1.71387 -0.0879,0 q -0.90088,1.1316 -1.80176,1.53809 -0.88989,0.39551 -2.2522,0.39551 -1.77978,0 -2.79053,-0.93384 -1.01074,-0.93384 -1.01074,-2.63672 0,-3.66944 5.7898,-3.84522 l 2.04346,-0.0769 0,-0.71411 q 0,-1.37329 -0.59326,-2.02149 -0.59326,-0.65918 -1.90064,-0.65918 -0.95581,0 -1.81274,0.28565 -0.84595,0.28564 -1.59302,0.63721 l -0.60425,-1.48316 q 0.91186,-0.4834 1.98852,-0.75806 1.07667,-0.27466 2.13136,-0.27466 2.18628,0 3.25195,0.9668 1.06568,0.9668 1.06568,3.07618 l 0,8.21778 -1.43921,0 z m -4.07594,-1.37329 q 1.65894,0 2.60377,-0.88989 0.95581,-0.90088 0.95581,-2.54884 l 0,-1.08764 -1.77979,0.0769 q -2.07642,0.0769 -3.03223,0.65918 -0.94482,0.58228 -0.94482,1.83472 0,0.94483 0.57128,1.4502 0.58228,0.50537 1.62598,0.50537 z"
         style="font-style:normal;font-variant:normal;font-weight:normal;font-stretch:normal;font-size:22.50003242px;font-family:'Noto Sans';-inkscape-font-specification:'Noto Sans'"
         id="path4269" />
      <path
         d="m 370.43888,848.09698 q 0,1.6919 -1.26343,2.62574 -1.26343,0.92285 -3.54859,0.92285 -2.38404,0 -3.79029,-0.75806 l 0,-1.80176 q 1.98853,0.9668 3.83423,0.9668 1.49415,0 2.1753,-0.4834 0.68115,-0.4834 0.68115,-1.29639 0,-0.71411 -0.65918,-1.2085 -0.64819,-0.49438 -2.31812,-1.13159 -1.70288,-0.65918 -2.39502,-1.12061 -0.69214,-0.47241 -1.02173,-1.05469 -0.3186,-0.58227 -0.3186,-1.41723 0,-1.48316 1.20849,-2.3401 1.2085,-0.85693 3.31788,-0.85693 2.05445,0 3.84522,0.81299 l -0.67017,1.57105 q -1.83472,-0.76905 -3.30689,-0.76905 -1.23047,0 -1.86767,0.39551 -0.63721,0.38452 -0.63721,1.06568 0,0.65918 0.54931,1.09863 0.54932,0.42847 2.55982,1.19751 1.50513,0.56031 2.21924,1.0437 0.7251,0.4834 1.06568,1.08765 0.34058,0.60425 0.34058,1.4502 z"
         style="font-style:normal;font-variant:normal;font-weight:normal;font-stretch:normal;font-size:22.50003242px;font-family:'Noto Sans';-inkscape-font-specification:'Noto Sans'"
         id="path4271" />
      <path
         d="m 377.38225,850.03058 q 0.38452,0 0.90088,-0.0769 0.51635,-0.0769 0.78003,-0.17578 l 0,1.51612 q -0.27466,0.12085 -0.85694,0.23071 -0.57129,0.12085 -1.16455,0.12085 -3.5376,0 -3.5376,-3.72437 l 0,-7.02028 -1.70289,0 0,-0.94482 1.72486,-0.79102 0.79102,-2.5708 1.17553,0 0,2.76856 3.48267,0 0,1.53808 -3.48267,0 0,6.96535 q 0,1.0437 0.49439,1.604 0.50537,0.56031 1.39527,0.56031 z"
         style="font-style:normal;font-variant:normal;font-weight:normal;font-stretch:normal;font-size:22.50003242px;font-family:'Noto Sans';-inkscape-font-specification:'Noto Sans'"
         id="path4273" />
    </g>
    <text
       xml:space="preserve"
       style="font-style:normal;font-weight:normal;font-size:8.06672668px;line-height:125%;font-family:sans-serif;letter-spacing:0px;word-spacing:0px;fill:#000000;fill-opacity:1;stroke:none;stroke-width:1px;stroke-linecap:butt;stroke-linejoin:miter;stroke-opacity:1"
       x="399.80951"
       y="819.06708"
       id="text4165-9"
       sodipodi:linespacing="125%"
       transform="scale(0.90813366,1.1011595)"><tspan
         sodipodi:role="line"
         x="399.80951"
         y="819.06708"
         style="font-style:normal;font-variant:normal;font-weight:normal;font-stretch:normal;font-size:22.50003242px;font-family:'Noto Sans';-inkscape-font-specification:'Noto Sans'"
         id="tspan4260">eggs</tspan></text>
    <text
       xml:space="preserve"
       style="font-style:normal;font-weight:normal;font-size:8.06672668px;line-height:125%;font-family:sans-serif;letter-spacing:0px;word-spacing:0px;fill:#000000;fill-opacity:1;stroke:none;stroke-width:1px;stroke-linecap:butt;stroke-linejoin:miter;stroke-opacity:1"
       x="405.51746"
       y="882.04877"
       id="text4165-2-8"
       sodipodi:linespacing="125%"
       transform="scale(0.90813366,1.1011595)"><tspan
         sodipodi:role="line"
         x="405.51746"
         y="882.04877"
         style="font-style:normal;font-variant:normal;font-weight:normal;font-stretch:normal;font-size:22.50003242px;font-family:'Noto Sans';-inkscape-font-specification:'Noto Sans'"
         id="tspan4187-3">oatmeal</tspan></text>
    <path
       inkscape:connector-curvature="0"
       style="fill:#ffffff;fill-opacity:1;stroke:#000000;stroke-width:2.42001772;stroke-miterlimit:8.39999962;stroke-dasharray:none;stroke-opacity:1"
       d="m 340.92536,993.36347 a 0.9250049,1.3459404 0 0 1 -0.925,1.346 0.9250049,1.3459404 0 0 1 -0.92501,-1.346 0.9250049,1.3459404 0 0 1 0.92501,-1.3459 0.9250049,1.3459404 0 0 1 0.925,1.3459 z"
       id="path4138-35-1" />
    <text
       xml:space="preserve"
       style="font-style:normal;font-weight:normal;font-size:40px;line-height:125%;font-family:sans-serif;letter-spacing:0px;word-spacing:0px;fill:#000000;fill-opacity:1;stroke:none;stroke-width:1px;stroke-linecap:butt;stroke-linejoin:miter;stroke-opacity:1"
       x="328.00034"
       y="1016.3636"
       id="text4372"
       sodipodi:linespacing="125%"><tspan
         sodipodi:role="line"
         id="tspan4374"
         x="328.00034"
         y="1016.3636"
         style="font-style:normal;font-variant:normal;font-weight:normal;font-stretch:normal;font-size:22.50003815px;font-family:'Noto Sans';-inkscape-font-specification:'Noto Sans'">coffee</tspan></text>
    <path
       style="fill:none;fill-rule:evenodd;stroke:#000000;stroke-width:1px;stroke-linecap:butt;stroke-linejoin:miter;stroke-opacity:1;marker-end:url(#Arrow1Lend)"
       d="M 61.499876,974.36348 339.00035,992.36352"
       id="path4376"
       inkscape:connector-curvature="0" />
    <path
       style="fill:none;fill-rule:evenodd;stroke:#000000;stroke-width:1px;stroke-linecap:butt;stroke-linejoin:miter;stroke-opacity:1;marker-end:url(#marker4678)"
       d="m 127.99999,1005.3635 206.50035,-5.49997"
       id="path4670"
       inkscape:connector-curvature="0" />
    <path
       style="fill:none;fill-rule:evenodd;stroke:#000000;stroke-width:1px;stroke-linecap:butt;stroke-linejoin:miter;stroke-opacity:1;marker-end:url(#marker4720)"
       d="m 124.99998,918.86339 251.50043,-4.00001"
       id="path4712"
       inkscape:connector-curvature="0" />
    <text
       xml:space="preserve"
       style="font-style:normal;font-weight:normal;font-size:22.5px;line-height:125%;font-family:sans-serif;letter-spacing:0px;word-spacing:0px;fill:#000000;fill-opacity:1;stroke:none;stroke-width:1px;stroke-linecap:butt;stroke-linejoin:miter;stroke-opacity:1"
       x="172.00006"
       y="867.36334"
       id="text4773"
       sodipodi:linespacing="125%"><tspan
         sodipodi:role="line"
         id="tspan4775"
         x="172.00006"
         y="867.36334"
         style="font-size:15.00002575px">f = favorite breakfast</tspan></text>
  </g>
</svg>
