<?xml version="1.0" encoding="UTF-8" standalone="no"?>
<svg
   xmlns:dc="http://purl.org/dc/elements/1.1/"
   xmlns:cc="http://creativecommons.org/ns#"
   xmlns:rdf="http://www.w3.org/1999/02/22-rdf-syntax-ns#"
   xmlns:svg="http://www.w3.org/2000/svg"
   xmlns="http://www.w3.org/2000/svg"
   id="svg8"
   version="1.1"
   viewBox="0 0 577 188"
   height="188mm"
   width="577mm">
  <defs
     id="defs2">
    <marker
       style="overflow:visible;"
       id="marker5227"
       refX="0.0"
       refY="0.0"
       orient="auto">
      <path
         transform="scale(0.8) rotate(180) translate(12.5,0)"
         style="fill-rule:evenodd;stroke:#000000;stroke-width:1pt;stroke-opacity:1;fill:#000000;fill-opacity:1"
         d="M 0.0,0.0 L 5.0,-5.0 L -12.5,0.0 L 5.0,5.0 L 0.0,0.0 z "
         id="path5225" />
    </marker>
    <marker
       orient="auto"
       refY="0.0"
       refX="0.0"
       id="marker5173"
       style="overflow:visible;">
      <path
         id="path5171"
         d="M 0.0,0.0 L 5.0,-5.0 L -12.5,0.0 L 5.0,5.0 L 0.0,0.0 z "
         style="fill-rule:evenodd;stroke:#000000;stroke-width:1pt;stroke-opacity:1;fill:#000000;fill-opacity:1"
         transform="scale(0.8) rotate(180) translate(12.5,0)" />
    </marker>
    <marker
       style="overflow:visible;"
       id="marker5131"
       refX="0.0"
       refY="0.0"
       orient="auto">
      <path
         transform="scale(0.8) rotate(180) translate(12.5,0)"
         style="fill-rule:evenodd;stroke:#000000;stroke-width:1pt;stroke-opacity:1;fill:#000000;fill-opacity:1"
         d="M 0.0,0.0 L 5.0,-5.0 L -12.5,0.0 L 5.0,5.0 L 0.0,0.0 z "
         id="path5129" />
    </marker>
    <marker
       orient="auto"
       refY="0.0"
       refX="0.0"
       id="marker5089"
       style="overflow:visible;">
      <path
         id="path5087"
         d="M 0.0,0.0 L 5.0,-5.0 L -12.5,0.0 L 5.0,5.0 L 0.0,0.0 z "
         style="fill-rule:evenodd;stroke:#000000;stroke-width:1pt;stroke-opacity:1;fill:#000000;fill-opacity:1"
         transform="scale(0.8) rotate(180) translate(12.5,0)" />
    </marker>
    <marker
       style="overflow:visible;"
       id="Arrow1Lend"
       refX="0.0"
       refY="0.0"
       orient="auto">
      <path
         transform="scale(0.8) rotate(180) translate(12.5,0)"
         style="fill-rule:evenodd;stroke:#000000;stroke-width:1pt;stroke-opacity:1;fill:#000000;fill-opacity:1"
         d="M 0.0,0.0 L 5.0,-5.0 L -12.5,0.0 L 5.0,5.0 L 0.0,0.0 z "
         id="path4728" />
    </marker>
  </defs>
  <metadata
     id="metadata5">
    <rdf:RDF>
      <cc:Work
         rdf:about="">
        <dc:format>image/svg+xml</dc:format>
        <dc:type
           rdf:resource="http://purl.org/dc/dcmitype/StillImage" />
        <dc:title></dc:title>
      </cc:Work>
    </rdf:RDF>
  </metadata>
  <g
     transform="translate(0,-109)"
     id="layer1">
    <g
       transform="translate(-30.998657,78.188138)"
       id="text4508"
       style="font-style:normal;font-variant:normal;font-weight:normal;font-stretch:normal;font-size:11.28888893px;line-height:6.61458302px;font-family:Quicksand;-inkscape-font-specification:Quicksand;letter-spacing:0px;word-spacing:0px;fill:#000000;fill-opacity:1;stroke:none;stroke-width:0.26458332px;stroke-linecap:butt;stroke-linejoin:miter;stroke-opacity:1"
       aria-label="SomeException">
      <path
         id="path4510"
         style="font-size:16.93333244px;stroke-width:0.26458332px"
         d="m 263.70583,65.469931 q -1.2192,0 -2.16747,-0.4064 -0.93133,-0.406399 -1.81186,-1.269999 -0.2032,-0.169334 -0.2032,-0.4064 0,-0.2032 0.1524,-0.372534 0.16933,-0.169333 0.37253,-0.169333 0.2032,0 0.37253,0.169333 1.3208,1.456267 3.302,1.456267 1.2192,0 2.01507,-0.575733 0.8128,-0.575734 0.8128,-1.507067 0,-0.728133 -0.4064,-1.202267 -0.38947,-0.491066 -1.03293,-0.795866 -0.64347,-0.3048 -1.64254,-0.626534 -1.08373,-0.321733 -1.8288,-0.7112 -0.72813,-0.389466 -1.18533,-1.032933 -0.4572,-0.6604 -0.4572,-1.659466 0,-0.897467 0.47413,-1.591734 0.49107,-0.694266 1.35467,-1.083733 0.88053,-0.4064 2.01507,-0.4064 1.03293,0 1.9304,0.3556 0.9144,0.338667 1.45626,0.982133 0.254,0.287867 0.254,0.491067 0,0.186267 -0.16933,0.3556 -0.16933,0.1524 -0.37253,0.1524 -0.16934,0 -0.28787,-0.118533 -0.4572,-0.541867 -1.2192,-0.880534 -0.762,-0.338666 -1.59173,-0.338666 -1.23614,0 -2.01507,0.5588 -0.77893,0.541866 -0.77893,1.490133 0,0.982133 0.74506,1.507067 0.74507,0.524933 2.1336,0.965199 1.20227,0.3556 1.96427,0.728134 0.762,0.372533 1.23613,1.0668 0.49107,0.677333 0.49107,1.794933 0,0.8636 -0.508,1.5748 -0.49107,0.694267 -1.38853,1.100666 -0.88054,0.4064 -2.01507,0.4064 z" />
      <path
         id="path4512"
         style="font-size:16.93333244px;stroke-width:0.26458332px"
         d="m 277.76896,60.965665 q 0,1.27 -0.5588,2.302933 -0.5588,1.032934 -1.54093,1.6256 -0.98213,0.575733 -2.1844,0.575733 -1.20227,0 -2.1844,-0.575733 -0.98213,-0.592666 -1.54093,-1.6256 -0.5588,-1.032933 -0.5588,-2.302933 0,-1.27 0.5588,-2.302933 0.5588,-1.032933 1.54093,-1.6256 0.98213,-0.592667 2.1844,-0.592667 1.20227,0 2.1844,0.592667 0.98213,0.592667 1.54093,1.6256 0.5588,1.032933 0.5588,2.302933 z m -1.016,0 q 0,-1.016 -0.42333,-1.8288 -0.42333,-0.8128 -1.18533,-1.27 -0.74507,-0.474133 -1.65947,-0.474133 -0.9144,0 -1.65947,0.474133 -0.74506,0.4572 -1.18533,1.27 -0.42333,0.8128 -0.42333,1.8288 0,0.999067 0.42333,1.811867 0.44027,0.8128 1.18533,1.286933 0.74507,0.4572 1.65947,0.4572 0.9144,0 1.65947,-0.4572 0.762,-0.4572 1.18533,-1.27 0.42333,-0.8128 0.42333,-1.8288 z" />
      <path
         id="path4514"
         style="font-size:16.93333244px;stroke-width:0.26458332px"
         d="m 289.685,56.579932 q 1.524,0 2.2352,0.948267 0.72814,0.931333 0.72814,2.472266 v 4.792133 q 0,0.220133 -0.1524,0.372533 -0.13547,0.135467 -0.3556,0.135467 -0.22014,0 -0.37254,-0.135467 -0.13546,-0.1524 -0.13546,-0.372533 v -4.741333 q 0,-1.1176 -0.54187,-1.811866 -0.52493,-0.7112 -1.64253,-0.7112 -0.7112,0 -1.35467,0.338666 -0.62653,0.338667 -1.016,0.931333 -0.38947,0.575734 -0.38947,1.253067 v 4.741333 q 0,0.220133 -0.1524,0.372533 -0.13546,0.135467 -0.3556,0.135467 -0.22013,0 -0.37253,-0.135467 -0.13547,-0.1524 -0.13547,-0.372533 v -4.792133 q 0,-1.100667 -0.508,-1.778 -0.508,-0.694266 -1.59173,-0.694266 -0.69427,0 -1.3208,0.338666 -0.6096,0.338667 -0.99907,0.9144 -0.37253,0.5588 -0.37253,1.2192 v 4.792133 q 0,0.220133 -0.1524,0.372533 -0.13547,0.135467 -0.3556,0.135467 -0.22013,0 -0.37253,-0.135467 -0.13547,-0.1524 -0.13547,-0.372533 v -7.586133 q 0,-0.220133 0.13547,-0.3556 0.1524,-0.1524 0.37253,-0.1524 0.22013,0 0.3556,0.1524 0.1524,0.135467 0.1524,0.3556 v 0.982134 q 0.4572,-0.694267 1.23613,-1.151467 0.77894,-0.4572 1.64254,-0.4572 0.98213,0 1.69333,0.474133 0.7112,0.474134 1.016,1.388534 0.3556,-0.745067 1.30387,-1.303867 0.94826,-0.5588 1.91346,-0.5588 z" />
      <path
         id="path4516"
         style="font-size:16.93333244px;stroke-width:0.26458332px"
         d="m 302.62392,60.474598 q 0,0.2032 -0.1524,0.3556 -0.1524,0.135467 -0.3556,0.135467 h -6.4008 q 0,1.016 0.4064,1.8288 0.42333,0.795867 1.18533,1.27 0.77894,0.4572 1.8288,0.4572 0.8128,0 1.45627,-0.338667 0.64347,-0.338666 1.03293,-0.8636 0.18627,-0.1524 0.3556,-0.1524 0.16933,0 0.3048,0.135467 0.13547,0.135467 0.13547,0.3048 0,0.186267 -0.16934,0.3556 -0.54186,0.6604 -1.37159,1.083733 -0.8128,0.423333 -1.7272,0.423333 -1.30387,0 -2.30294,-0.5588 -0.99906,-0.558799 -1.55786,-1.557866 -0.5588,-1.016 -0.5588,-2.3368 0,-1.388533 0.54186,-2.421467 0.5588,-1.049866 1.4732,-1.591733 0.9144,-0.5588 1.94734,-0.5588 1.016,0 1.89653,0.474134 0.89747,0.474133 1.45626,1.388533 0.5588,0.9144 0.57574,2.167466 z m -3.92853,-3.047999 q -0.98214,0 -1.8288,0.677333 -0.82974,0.677333 -1.0668,1.947333 h 5.77426 v -0.135467 q -0.0847,-0.762 -0.508,-1.3208 -0.42333,-0.575733 -1.0668,-0.863599 -0.62653,-0.3048 -1.30386,-0.3048 z" />
      <path
         id="path4518"
         style="font-size:16.93333244px;stroke-width:0.26458332px"
         d="m 311.71103,64.301532 q 0.22014,0 0.3556,0.1524 0.1524,0.1524 0.1524,0.3556 0,0.220133 -0.1524,0.355599 -0.13546,0.135467 -0.3556,0.135467 h -6.21453 q -0.22013,0 -0.37253,-0.135467 -0.13547,-0.1524 -0.13547,-0.372533 V 53.955265 q 0,-0.220133 0.13547,-0.3556 0.1524,-0.1524 0.37253,-0.1524 h 6.21453 q 0.22014,0 0.3556,0.1524 0.1524,0.135467 0.1524,0.3556 0,0.220134 -0.1524,0.3556 -0.13546,0.135467 -0.3556,0.135467 h -5.65573 v 4.250266 h 4.89373 q 0.22014,0 0.3556,0.1524 0.1524,0.135467 0.1524,0.3556 0,0.220134 -0.1524,0.3556 -0.13546,0.135467 -0.3556,0.135467 h -4.89373 v 4.605867 z" />
      <path
         id="path4520"
         style="font-size:16.93333244px;stroke-width:0.26458332px"
         d="m 320.52245,64.538598 q 0.11853,0.135467 0.11853,0.3048 0,0.2032 -0.1524,0.372533 -0.1524,0.1524 -0.3556,0.1524 -0.23706,0 -0.42333,-0.237066 l -2.5908,-3.3528 -2.5908,3.369733 q -0.1524,0.2032 -0.4064,0.2032 -0.18627,0 -0.33867,-0.118533 -0.1524,-0.135467 -0.1524,-0.338667 0,-0.186266 0.11854,-0.321733 l 2.77706,-3.556 -2.82786,-3.640666 q -0.1016,-0.135467 -0.1016,-0.3048 0,-0.2032 0.1524,-0.3556 0.16933,-0.1524 0.37253,-0.1524 0.254,0 0.4064,0.220133 l 2.6416,3.4036 2.54,-3.4036 q 0.16933,-0.220133 0.42333,-0.220133 0.22014,0 0.33867,0.135466 0.13547,0.118534 0.13547,0.3048 0,0.186267 -0.11854,0.321734 l -2.7432,3.606799 z" />
      <path
         id="path4522"
         style="font-size:16.93333244px;stroke-width:0.26458332px"
         d="m 326.10463,56.444465 q 0.79586,0 1.4732,0.186267 0.69426,0.169333 1.10066,0.474133 0.42334,0.3048 0.42334,0.6604 0,0.186267 -0.13547,0.338667 -0.11853,0.1524 -0.3048,0.1524 -0.16933,0 -0.28787,-0.06773 -0.1016,-0.06773 -0.23706,-0.2032 -0.22014,-0.220134 -0.42334,-0.321734 -0.254,-0.118533 -0.67733,-0.186266 -0.4064,-0.08467 -0.88053,-0.08467 -0.93134,0 -1.71027,0.474133 -0.762,0.474134 -1.20227,1.286933 -0.44026,0.8128 -0.44026,1.794934 0,1.016 0.42333,1.8288 0.42333,0.8128 1.1684,1.286933 0.762,0.4572 1.7272,0.4572 0.6096,0 0.9652,-0.1016 0.37253,-0.1016 0.72813,-0.287867 0.11854,-0.06773 0.4064,-0.3048 0.13547,-0.118533 0.23707,-0.169333 0.1016,-0.06773 0.22013,-0.06773 0.2032,0 0.32174,0.135466 0.11853,0.118534 0.11853,0.321734 0,0.287866 -0.4064,0.626533 -0.4064,0.321733 -1.1176,0.5588 -0.7112,0.237066 -1.5748,0.237066 -1.23613,0 -2.20133,-0.575733 -0.9652,-0.592666 -1.50707,-1.6256 -0.52493,-1.032933 -0.52493,-2.319866 0,-1.236134 0.54186,-2.252134 0.54187,-1.032933 1.524,-1.642533 0.98214,-0.6096 2.25214,-0.6096 z" />
      <path
         id="path4524"
         style="font-size:16.93333244px;stroke-width:0.26458332px"
         d="m 338.37574,60.474598 q 0,0.2032 -0.1524,0.3556 -0.1524,0.135467 -0.3556,0.135467 h -6.4008 q 0,1.016 0.4064,1.8288 0.42334,0.795867 1.18534,1.27 0.77893,0.4572 1.8288,0.4572 0.8128,0 1.45626,-0.338667 0.64347,-0.338666 1.03294,-0.8636 0.18626,-0.1524 0.3556,-0.1524 0.16933,0 0.3048,0.135467 0.13546,0.135467 0.13546,0.3048 0,0.186267 -0.16933,0.3556 -0.54187,0.6604 -1.3716,1.083733 -0.8128,0.423333 -1.7272,0.423333 -1.30387,0 -2.30293,-0.5588 -0.99907,-0.558799 -1.55787,-1.557866 -0.5588,-1.016 -0.5588,-2.3368 0,-1.388533 0.54187,-2.421467 0.5588,-1.049866 1.4732,-1.591733 0.9144,-0.5588 1.94733,-0.5588 1.016,0 1.89653,0.474134 0.89747,0.474133 1.45627,1.388533 0.5588,0.9144 0.57573,2.167466 z m -3.92853,-3.047999 q -0.98213,0 -1.8288,0.677333 -0.82973,0.677333 -1.0668,1.947333 h 5.77427 v -0.135467 q -0.0847,-0.762 -0.508,-1.3208 -0.42334,-0.575733 -1.0668,-0.863599 -0.62654,-0.3048 -1.30387,-0.3048 z" />
      <path
         id="path4526"
         style="font-size:16.93333244px;stroke-width:0.26458332px"
         d="m 344.60112,56.579932 q 1.1176,0 2.032,0.575733 0.9144,0.5588 1.4224,1.5748 0.52494,0.999067 0.52494,2.252133 0,1.27 -0.52494,2.286 -0.508,0.999067 -1.4224,1.5748 -0.89746,0.575733 -2.01506,0.575733 -0.98214,0 -1.81187,-0.4572 -0.8128,-0.474133 -1.30387,-1.253066 v 4.4704 q 0,0.220133 -0.1524,0.3556 -0.13546,0.1524 -0.3556,0.1524 -0.22013,0 -0.37253,-0.1524 -0.13547,-0.135467 -0.13547,-0.3556 V 57.138732 q 0,-0.220133 0.13547,-0.372533 0.1524,-0.1524 0.37253,-0.1524 0.22014,0 0.3556,0.1524 0.1524,0.1524 0.1524,0.372533 v 1.151467 q 0.44027,-0.795867 1.27,-1.253067 0.82974,-0.4572 1.8288,-0.4572 z m -0.0847,7.890933 q 0.88053,0 1.5748,-0.440267 0.7112,-0.4572 1.10066,-1.253066 0.4064,-0.795867 0.4064,-1.794934 0,-0.982133 -0.4064,-1.761066 -0.38946,-0.795867 -1.10066,-1.236133 -0.69427,-0.4572 -1.5748,-0.4572 -0.89747,0 -1.60867,0.440266 -0.7112,0.440267 -1.10067,1.236133 -0.38946,0.778934 -0.38946,1.778 0,0.999067 0.38946,1.794934 0.38947,0.795866 1.10067,1.253066 0.7112,0.440267 1.60867,0.440267 z" />
      <path
         id="path4528"
         style="font-size:16.93333244px;stroke-width:0.26458332px"
         d="m 352.36611,57.629799 v 5.672666 q 0,0.643467 0.23707,0.880533 0.23706,0.220134 0.62653,0.220134 0.1016,0 0.254,-0.03387 0.1524,-0.0508 0.23707,-0.0508 0.1524,0 0.254,0.135467 0.11853,0.118533 0.11853,0.287866 0,0.237067 -0.27093,0.4064 -0.27094,0.1524 -0.64347,0.1524 -0.4572,0 -0.8128,-0.08467 -0.3556,-0.08467 -0.69427,-0.507999 -0.32173,-0.423334 -0.32173,-1.354667 v -5.723466 h -1.23613 q -0.2032,0 -0.3556,-0.135467 -0.13547,-0.135467 -0.13547,-0.338667 0,-0.2032 0.13547,-0.338666 0.1524,-0.135467 0.3556,-0.135467 h 1.23613 v -1.8796 q 0,-0.220133 0.13547,-0.3556 0.1524,-0.1524 0.37253,-0.1524 0.22013,0 0.3556,0.1524 0.1524,0.135467 0.1524,0.3556 v 1.8796 h 1.69333 q 0.18627,0 0.32174,0.1524 0.1524,0.1524 0.1524,0.338667 0,0.2032 -0.13547,0.338666 -0.13547,0.118534 -0.33867,0.118534 z" />
      <path
         id="path4530"
         style="font-size:16.93333244px;stroke-width:0.26458332px"
         d="m 357.4096,64.792598 q 0,0.220133 -0.1524,0.372533 -0.13547,0.135467 -0.3556,0.135467 -0.22014,0 -0.37254,-0.135467 -0.13546,-0.1524 -0.13546,-0.372533 v -7.789333 q 0,-0.220133 0.13546,-0.3556 0.1524,-0.1524 0.37254,-0.1524 0.22013,0 0.3556,0.1524 0.1524,0.135467 0.1524,0.3556 z m -0.508,-9.431866 q -0.33867,0 -0.52494,-0.1524 -0.18626,-0.169333 -0.18626,-0.474133 v -0.169334 q 0,-0.3048 0.18626,-0.4572 0.2032,-0.169333 0.54187,-0.169333 0.67733,0 0.67733,0.626533 v 0.169334 q 0,0.3048 -0.18626,0.474133 -0.16934,0.1524 -0.508,0.1524 z" />
      <path
         id="path4532"
         style="font-size:16.93333244px;stroke-width:0.26458332px"
         d="m 368.05802,60.965665 q 0,1.27 -0.5588,2.302933 -0.5588,1.032934 -1.54093,1.6256 -0.98214,0.575733 -2.1844,0.575733 -1.20227,0 -2.1844,-0.575733 -0.98214,-0.592666 -1.54094,-1.6256 -0.5588,-1.032933 -0.5588,-2.302933 0,-1.27 0.5588,-2.302933 0.5588,-1.032933 1.54094,-1.6256 0.98213,-0.592667 2.1844,-0.592667 1.20226,0 2.1844,0.592667 0.98213,0.592667 1.54093,1.6256 0.5588,1.032933 0.5588,2.302933 z m -1.016,0 q 0,-1.016 -0.42333,-1.8288 -0.42334,-0.8128 -1.18534,-1.27 -0.74506,-0.474133 -1.65946,-0.474133 -0.9144,0 -1.65947,0.474133 -0.74507,0.4572 -1.18533,1.27 -0.42334,0.8128 -0.42334,1.8288 0,0.999067 0.42334,1.811867 0.44026,0.8128 1.18533,1.286933 0.74507,0.4572 1.65947,0.4572 0.9144,0 1.65946,-0.4572 0.762,-0.4572 1.18534,-1.27 0.42333,-0.8128 0.42333,-1.8288 z" />
      <path
         id="path4534"
         style="font-size:16.93333244px;stroke-width:0.26458332px"
         d="m 374.23366,56.444465 q 1.5748,0 2.30293,0.931334 0.74507,0.9144 0.74507,2.438399 v 4.9784 q 0,0.220133 -0.1524,0.372533 -0.1524,0.135467 -0.3556,0.135467 -0.22013,0 -0.37253,-0.135467 -0.13547,-0.1524 -0.13547,-0.372533 v -4.9276 q 0,-1.100666 -0.5588,-1.777999 -0.54187,-0.694267 -1.69333,-0.694267 -0.72814,0 -1.38854,0.338667 -0.64346,0.338666 -1.04986,0.914399 -0.4064,0.5588 -0.4064,1.2192 v 4.9276 q 0,0.220133 -0.1524,0.372533 -0.13547,0.135467 -0.3556,0.135467 -0.22014,0 -0.37254,-0.135467 -0.13546,-0.1524 -0.13546,-0.372533 v -7.586133 q 0,-0.220133 0.13546,-0.3556 0.1524,-0.1524 0.37254,-0.1524 0.22013,0 0.3556,0.1524 0.1524,0.135467 0.1524,0.3556 v 0.931334 q 0.4572,-0.728134 1.30386,-1.202267 0.8636,-0.491067 1.76107,-0.491067 z" />
    </g>
    <ellipse
       ry="19.654762"
       rx="77.485123"
       cy="137.44112"
       cx="286.12338"
       id="path4618"
       style="fill:#777777;fill-opacity:0;stroke:#000002;stroke-width:2;stroke-miterlimit:4;stroke-dasharray:none;stroke-dashoffset:0;stroke-opacity:1" />
    <text
       id="text4679"
       y="120.60211"
       x="234.1281"
       style="font-style:normal;font-variant:normal;font-weight:normal;font-stretch:normal;font-size:16.93333244px;line-height:6.61458302px;font-family:Quicksand;-inkscape-font-specification:Quicksand;letter-spacing:0px;word-spacing:0px;fill:#000000;fill-opacity:1;stroke:none;stroke-width:0.26458332px;stroke-linecap:butt;stroke-linejoin:miter;stroke-opacity:1"
       xml:space="preserve"><tspan
         style="font-size:16.93333244px;stroke-width:0.26458332px"
         y="128.98941"
         x="234.1281"
         id="tspan4677" /></text>
    <text
       id="text4683"
       y="202.90501"
       x="35.814106"
       style="font-style:normal;font-variant:normal;font-weight:normal;font-stretch:normal;font-size:16.93333244px;line-height:6.61458302px;font-family:Quicksand;-inkscape-font-specification:Quicksand;letter-spacing:0px;word-spacing:0px;fill:#000000;fill-opacity:1;stroke:none;stroke-width:0.26458332px;stroke-linecap:butt;stroke-linejoin:miter;stroke-opacity:1"
       xml:space="preserve"><tspan
         style="stroke-width:0.26458332px"
         y="202.90501"
         x="35.814106"
         id="tspan4681">SomeAsyncException</tspan></text>
    <ellipse
       ry="19.722958"
       rx="110.45026"
       cy="199.83687"
       cx="116.26225"
       id="path4685"
       style="fill:#777777;fill-opacity:0;stroke:#000002;stroke-width:1.86408401;stroke-miterlimit:4;stroke-dasharray:none;stroke-dashoffset:0;stroke-opacity:1" />
    <text
       id="text4689"
       y="271.87665"
       x="44.874424"
       style="font-style:normal;font-variant:normal;font-weight:normal;font-stretch:normal;font-size:16.93333244px;line-height:6.61458302px;font-family:Quicksand;-inkscape-font-specification:Quicksand;letter-spacing:0px;word-spacing:0px;fill:#000000;fill-opacity:1;stroke:none;stroke-width:0.26458332px;stroke-linecap:butt;stroke-linejoin:miter;stroke-opacity:1"
       xml:space="preserve"><tspan
         id="tspan4691"
         style="stroke-width:0.26458332px"
         y="271.87665"
         x="44.874424">AsyncException</tspan></text>
    <ellipse
       ry="19.630806"
       rx="83.363899"
       cy="267.7233"
       cx="105.83873"
       id="path4695"
       style="fill:#777777;fill-opacity:0;stroke:#000002;stroke-width:2.04838848;stroke-miterlimit:4;stroke-dasharray:none;stroke-dashoffset:0;stroke-opacity:1" />
    <text
       id="text4699"
       y="202.92648"
       x="265.11526"
       style="font-style:normal;font-variant:normal;font-weight:normal;font-stretch:normal;font-size:16.93333244px;line-height:6.61458302px;font-family:Quicksand;-inkscape-font-specification:Quicksand;letter-spacing:0px;word-spacing:0px;fill:#000000;fill-opacity:1;stroke:none;stroke-width:0.26458332px;stroke-linecap:butt;stroke-linejoin:miter;stroke-opacity:1"
       xml:space="preserve"><tspan
         style="stroke-width:0.26458332px"
         y="202.92648"
         x="265.11526"
         id="tspan4697">ArithException</tspan></text>
    <text
       id="text4703"
       y="200.71841"
       x="446.85858"
       style="font-style:normal;font-variant:normal;font-weight:normal;font-stretch:normal;font-size:16.93333244px;line-height:6.61458302px;font-family:Quicksand;-inkscape-font-specification:Quicksand;letter-spacing:0px;word-spacing:0px;fill:#000000;fill-opacity:1;stroke:none;stroke-width:0.26458332px;stroke-linecap:butt;stroke-linejoin:miter;stroke-opacity:1"
       xml:space="preserve"><tspan
         style="stroke-width:0.26458332px"
         y="200.71841"
         x="446.85858"
         id="tspan4701">IOException</tspan></text>
    <ellipse
       ry="19.644695"
       rx="76.696045"
       cy="198.2332"
       cx="320.99072"
       id="path4705"
       style="fill:#777777;fill-opacity:0;stroke:#000002;stroke-width:2.02061009;stroke-miterlimit:4;stroke-dasharray:none;stroke-dashoffset:0;stroke-opacity:1" />
    <ellipse
       ry="19.712008"
       rx="79.168785"
       cy="196.62958"
       cx="491.77594"
       id="path4707"
       style="fill:#777777;fill-opacity:0;stroke:#000002;stroke-width:1.8859843;stroke-miterlimit:4;stroke-dasharray:none;stroke-dashoffset:0;stroke-opacity:1" />
    <text
       id="text4719"
       y="271.3421"
       x="405.71515"
       style="font-style:normal;font-variant:normal;font-weight:normal;font-stretch:normal;font-size:16.93333244px;line-height:6.61458302px;font-family:Quicksand;-inkscape-font-specification:Quicksand;letter-spacing:0px;word-spacing:0px;fill:#000000;fill-opacity:1;stroke:none;stroke-width:0.26458332px;stroke-linecap:butt;stroke-linejoin:miter;stroke-opacity:1"
       xml:space="preserve"><tspan
         style="stroke-width:0.26458332px"
         y="271.3421"
         x="405.71515"
         id="tspan4717">Etc.</tspan></text>
    <ellipse
       ry="19.762503"
       rx="58.104992"
       cy="266.13043"
       cx="419.88577"
       id="path4721"
       style="fill:#777777;fill-opacity:0;stroke:#000002;stroke-width:1.7849946;stroke-miterlimit:4;stroke-dasharray:none;stroke-dashoffset:0;stroke-opacity:1" />
    <path
       id="path4723"
       d="m 219.16101,147.32907 -98.88972,31.5378"
       style="fill:none;fill-rule:evenodd;stroke:#000000;stroke-width:1;stroke-linecap:butt;stroke-linejoin:miter;stroke-opacity:1;marker-end:url(#Arrow1Lend);stroke-miterlimit:4;stroke-dasharray:none" />
    <path
       id="path5079"
       d="m 106.96726,219.51489 -4.15774,28.34821"
       style="fill:none;fill-rule:evenodd;stroke:#000000;stroke-width:1;stroke-linecap:butt;stroke-linejoin:miter;stroke-opacity:1;marker-end:url(#marker5089);stroke-miterlimit:4;stroke-dasharray:none" />
    <path
       id="path5121"
       d="m 300.11309,156.77084 14.74107,21.16667"
       style="fill:none;fill-rule:evenodd;stroke:#000000;stroke-width:1;stroke-linecap:butt;stroke-linejoin:miter;stroke-opacity:1;stroke-miterlimit:4;stroke-dasharray:none;marker-end:url(#marker5131)" />
    <path
       id="path5163"
       d="m 357.94344,144.29763 134.93749,31.75"
       style="fill:none;fill-rule:evenodd;stroke:#000000;stroke-width:1;stroke-linecap:butt;stroke-linejoin:miter;stroke-opacity:1;marker-end:url(#marker5173);stroke-miterlimit:4;stroke-dasharray:none" />
    <path
       id="path5217"
       d="m 342.06844,151.1012 c 0,0 80.8869,18.14286 75.97322,94.87202"
       style="fill:none;fill-rule:evenodd;stroke:#000000;stroke-width:1;stroke-linecap:butt;stroke-linejoin:miter;stroke-opacity:1;stroke-miterlimit:4;stroke-dasharray:none;marker-end:url(#marker5227)" />
  </g>
</svg>
